<?xml version="1.0" encoding="UTF-8"?>
<svg version="1.1" xmlns="http://www.w3.org/2000/svg" width="414" height="97">
<path d="M0 0 C136.62 0 273.24 0 414 0 C414 32.01 414 64.02 414 97 C277.38 97 140.76 97 0 97 C0 64.99 0 32.98 0 0 Z " fill="#8A0151" transform="translate(0,0)"/>
<path d="M0 0 C5.28 0 10.56 0 16 0 C16 32.01 16 64.02 16 97 C6.1 97 -3.8 97 -14 97 C-14.33 96.01 -14.66 95.02 -15 94 C-16.98 94.99 -16.98 94.99 -19 96 C-18.93999894 94.3739713 -18.8512115 92.74898451 -18.75 91.125 C-18.70359375 90.22007813 -18.6571875 89.31515625 -18.609375 88.3828125 C-18 86 -18 86 -15.953125 84.6796875 C-15.30859375 84.45539063 -14.6640625 84.23109375 -14 84 C-14.66 83.67 -15.32 83.34 -16 83 C-16 82.01 -16 81.02 -16 80 C-15.01 79.505 -15.01 79.505 -14 79 C-14.01160156 78.35933594 -14.02320313 77.71867187 -14.03515625 77.05859375 C-14.08883119 71.91346778 -13.88169578 67.06975076 -13 62 C-12.34 62 -11.68 62 -11 62 C-11 60.02 -11 58.04 -11 56 C-10.34 56 -9.68 56 -9 56 C-9.33 55.34 -9.66 54.68 -10 54 C-12.52733235 53.34444881 -12.52733235 53.34444881 -15 53 C-15 52.34 -15 51.68 -15 51 C-15.66 50.67 -16.32 50.34 -17 50 C-17 48.35 -17 46.7 -17 45 C-17.66 44.67 -18.32 44.34 -19 44 C-18.01 43.34 -17.02 42.68 -16 42 C-15.26393501 38.43230448 -15.26393501 38.43230448 -15 35 C-14.67 35.66 -14.34 36.32 -14 37 C-12.700625 36.505 -12.700625 36.505 -11.375 36 C-8.03401706 35.01007913 -5.45684509 34.83921651 -2 35 C-1.67 35 -1.34 35 -1 35 C-0.87625 33.824375 -0.87625 33.824375 -0.75 32.625 C-0.5025 31.75875 -0.255 30.8925 0 30 C1.31647119 29.30062468 2.65022151 28.63270867 4 28 C4.144375 27.34 4.28875 26.68 4.4375 26 C4.623125 25.34 4.80875 24.68 5 24 C7.375 22.6875 7.375 22.6875 10 22 C10.99 22.33 11.98 22.66 13 23 C13.33 21.35 13.66 19.7 14 18 C12.02 18.99 12.02 18.99 10 20 C10.33 18.68 10.66 17.36 11 16 C9.35 17.32 7.7 18.64 6 20 C5.34 19.67 4.68 19.34 4 19 C4 19.66 4 20.32 4 21 C2.02 21.66 0.04 22.32 -2 23 C-6.76923077 17.46153846 -6.76923077 17.46153846 -7 14 C-6.34 13.01 -5.68 12.02 -5 11 C-3.68 13.64 -2.36 16.28 -1 19 C2.96 18.505 2.96 18.505 7 18 C7.33 15.03 7.66 12.06 8 9 C7.01 10.485 7.01 10.485 6 12 C5.01 13.485 5.01 13.485 4 15 C1.125 14.3125 1.125 14.3125 -2 13 C-3.375 10.375 -3.375 10.375 -4 8 C-2.66666667 6.66666667 -1.33333333 5.33333333 0 4 C0 2.68 0 1.36 0 0 Z " fill="#8B044F" transform="translate(398,0)"/>
<path d="M0 0 C23 0 23 0 27 2 C26.67 3.32 26.34 4.64 26 6 C26.99 6.33 27.98 6.66 29 7 C27.02 7.99 27.02 7.99 25 9 C25.66 9.66 26.32 10.32 27 11 C29.60280568 10.67958603 29.60280568 10.67958603 32 10 C31.34 9.67 30.68 9.34 30 9 C30.33 8.01 30.66 7.02 31 6 C32.98 6.99 34.96 7.98 37 9 C36 12 36 12 35 14 C36.32 14.66 37.64 15.32 39 16 C39 17.32 39 18.64 39 20 C38.01 20 37.02 20 36 20 C36 19.01 36 18.02 36 17 C35.505 18.485 35.505 18.485 35 20 C34.34 20 33.68 20 33 20 C33.495 21.485 33.495 21.485 34 23 C30.25 26 30.25 26 28 26 C27.67 27.32 27.34 28.64 27 30 C28.65 29.67 30.3 29.34 32 29 C32.32613618 33.67461851 31.70582788 36.16674383 29 40 C29.66 40 30.32 40 31 40 C31.33 40.99 31.66 41.98 32 43 C30.68 43.66 29.36 44.32 28 45 C27.67 43.68 27.34 42.36 27 41 C26.34 41 25.68 41 25 41 C25 40.34 25 39.68 25 39 C25.66 39 26.32 39 27 39 C26.67 37.68 26.34 36.36 26 35 C26 35.66 26 36.32 26 37 C24 36 24 36 23 35 C20.83656989 37.03268602 20.83656989 37.03268602 19 40 C16.2160817 38.60804085 16.02101003 36.84424221 15 34 C15.66 34 16.32 34 17 34 C16.67 33.34 16.34 32.68 16 32 C14.31318262 33.10041919 14.31318262 33.10041919 13 35 C13.23283149 38.14921909 13.23283149 38.14921909 14 41 C14.61875 41.103125 15.2375 41.20625 15.875 41.3125 C18 42 18 42 20 45 C21.93383287 46.30065921 21.93383287 46.30065921 24 47 C24.99 46.505 24.99 46.505 26 46 C26.33 47.98 26.66 49.96 27 52 C27.66 52 28.32 52 29 52 C29.33 53.65 29.66 55.3 30 57 C27.36 56.67 24.72 56.34 22 56 C21.87625 55.195625 21.7525 54.39125 21.625 53.5625 C21.41875 52.716875 21.2125 51.87125 21 51 C20.34 50.67 19.68 50.34 19 50 C19.33 50.99 19.66 51.98 20 53 C18.02 53.495 18.02 53.495 16 54 C16 53.01 16 52.02 16 51 C15.67 51.99 15.34 52.98 15 54 C16.65 54.33 18.3 54.66 20 55 C21.04561999 58.13685998 21 60.72365939 21 64 C21.66 64.33 22.32 64.66 23 65 C22.979375 65.7425 22.95875 66.485 22.9375 67.25 C22.99328688 69.70462279 23.3069904 71.66109261 24 74 C23.01 74.495 23.01 74.495 22 75 C22.33 76.32 22.66 77.64 23 79 C21.515 79.99 21.515 79.99 20 81 C20.33 82.65 20.66 84.3 21 86 C20.34 86 19.68 86 19 86 C19 86.99 19 87.98 19 89 C17.02 89.495 17.02 89.495 15 90 C14.67 89.34 14.34 88.68 14 88 C10.535 88.99 10.535 88.99 7 90 C7 90.99 7 91.98 7 93 C7.66 93.33 8.32 93.66 9 94 C8.67 94.99 8.34 95.98 8 97 C5.36 97 2.72 97 0 97 C0 64.99 0 32.98 0 0 Z " fill="#8B0550" transform="translate(0,0)"/>
<path d="M0 0 C3.135 -0.0825 6.27 -0.165 9.5 -0.25 C10.47130859 -0.28641602 11.44261719 -0.32283203 12.44335938 -0.36035156 C19.09552281 -0.44424785 24.58022533 0.75214483 29.52490234 5.44824219 C34.03453118 10.63146116 35.46601739 14.579582 35.31640625 21.33203125 C34.64597062 26.9852107 32.56679341 31.47237643 28.5 35.4375 C24.36662045 38.02086222 21.74536544 39.25285309 16.796875 39.1953125 C15.91354492 39.19031738 15.03021484 39.18532227 14.12011719 39.18017578 C13.00797852 39.16196777 11.89583984 39.14375977 10.75 39.125 C7.2025 39.08375 3.655 39.0425 0 39 C0 26.13 0 13.26 0 0 Z " fill="#FAF5F8" transform="translate(96,43)"/>
<path d="M0 0 C2.64 0 5.28 0 8 0 C8 13.53 8 27.06 8 41 C5.69 41 3.38 41 1 41 C0.67 40.34 0.34 39.68 0 39 C-0.99 39.66 -1.98 40.32 -3 41 C-7.34473993 41.64795964 -11.94504526 41.97893513 -15.984375 40.0546875 C-19.20399071 37.52043553 -21.1194414 34.96251371 -22 31 C-22.53673793 26.00162807 -22.5821341 22.20904774 -20.375 17.625 C-16.69657002 13.55936687 -13.93359027 11.20002658 -8.375 10.625 C-5 11 -5 11 -1 13 C-0.67 8.71 -0.34 4.42 0 0 Z " fill="#FAF6F9" transform="translate(313,41)"/>
<path d="M0 0 C3.0323678 2.6797669 4.34266105 4.56462297 5.6875 8.375 C5.6875 10.685 5.6875 12.995 5.6875 15.375 C-0.9125 15.375 -7.5125 15.375 -14.3125 15.375 C-11.98998574 20.25995525 -11.98998574 20.25995525 -9.3125 21.375 C-5.09103434 21.65643104 -2.13958507 21.17598121 1.6875 19.375 C3.25 21.1875 3.25 21.1875 4.6875 23.375 C3.6875 26.375 3.6875 26.375 0.5625 28.0625 C-4.75988379 30.10039848 -9.25512176 30.0658551 -14.5 27.8125 C-18.63640499 25.51538966 -20.8996439 22.9068026 -22.3125 18.375 C-23.17252072 12.70084032 -22.57658691 8.21485301 -19.3125 3.375 C-13.54238287 -1.96235835 -7.14854074 -3.50683131 0 0 Z " fill="#F8F3F7" transform="translate(282.3125,53.625)"/>
<path d="M0 0 C3.45211024 2.30140683 4.9826251 4.1448704 6.8125 7.875 C6.8125 10.515 6.8125 13.155 6.8125 15.875 C0.2125 15.875 -6.3875 15.875 -13.1875 15.875 C-10.86498574 20.75995525 -10.86498574 20.75995525 -8.1875 21.875 C-3.94778942 22.11053948 -0.82571698 22.20345886 2.8125 19.875 C4.375 21.6875 4.375 21.6875 5.8125 23.875 C4.8125 26.875 4.8125 26.875 1.875 28.625 C-3.750444 30.82878218 -9.55142942 29.90650588 -15.0625 27.75 C-18.63330698 24.59928796 -20.75852057 21.32754904 -21.57421875 16.6640625 C-21.84258435 11.24122666 -20.81663845 6.99513954 -17.1875 2.875 C-11.86122448 -1.5811414 -6.60881442 -2.33252274 0 0 Z " fill="#F9F4F7" transform="translate(155.1875,53.125)"/>
<path d="M0 0 C2.4375 1 2.4375 1 4 3 C4.91818865 8.32549417 4.23864355 11.15840442 1.3125 15.6875 C0.23587686 17.14574308 -0.86701072 18.58510581 -2 20 C-2.44085938 20.56589844 -2.88171875 21.13179687 -3.3359375 21.71484375 C-4.5625 23.125 -4.5625 23.125 -7 25 C-13.63679401 24.40860251 -18.93572854 20.01392338 -23.5625 15.5 C-25.40212762 12.30064762 -25.68121368 10.63313962 -25 7 C-23.125 4.125 -23.125 4.125 -20 2 C-17.37358025 1.74488598 -14.93364188 1.80777657 -12.3046875 2.01953125 C-7.81272883 1.9814638 -5.0940506 -0.44684654 0 0 Z " fill="#FCE6F1" transform="translate(227,15)"/>
<path d="M0 0 C4.04902285 2.42941371 5.55364316 4.58389262 7 9 C7.22705078 11.49536133 7.22705078 11.49536133 7.1953125 14.08203125 C7.18886719 15.01337891 7.18242187 15.94472656 7.17578125 16.90429688 C7.15902344 17.86400391 7.14226562 18.82371094 7.125 19.8125 C7.11597656 20.79154297 7.10695313 21.77058594 7.09765625 22.77929688 C7.07417182 25.18645061 7.0413284 27.59309743 7 30 C4.36 30 1.72 30 -1 30 C-1.02505615 29.36908447 -1.0501123 28.73816895 -1.07592773 28.08813477 C-1.19154137 25.24603175 -1.31442316 22.40428917 -1.4375 19.5625 C-1.47681641 18.56927734 -1.51613281 17.57605469 -1.55664062 16.55273438 C-1.59853516 15.60849609 -1.64042969 14.66425781 -1.68359375 13.69140625 C-1.72025146 12.81685791 -1.75690918 11.94230957 -1.79467773 11.04125977 C-1.78181066 9.0072598 -1.78181066 9.0072598 -3 8 C-7.14276875 7.75266863 -7.14276875 7.75266863 -11 9 C-11.33 15.93 -11.66 22.86 -12 30 C-14.64 30 -17.28 30 -20 30 C-20 20.43 -20 10.86 -20 1 C-17.69 1 -15.38 1 -13 1 C-13 1.99 -13 2.98 -13 4 C-12.154375 3.34 -11.30875 2.68 -10.4375 2 C-6.46412407 -0.31178236 -4.51990817 -0.65744119 0 0 Z " fill="#F8F3F7" transform="translate(249,52)"/>
<path d="M0 0 C2.79827632 1.11833382 5.39726245 2.48567997 8 4 C7.34 5.32 6.68 6.64 6 8 C2 8 2 8 0 7 C-1.99960012 6.960008 -4.00047242 6.95653201 -6 7 C-6 7.99 -6 8.98 -6 10 C-5.15695313 10.33773437 -4.31390625 10.67546875 -3.4453125 11.0234375 C-2.34960938 11.46945313 -1.25390625 11.91546875 -0.125 12.375 C0.96554688 12.81585938 2.05609375 13.25671875 3.1796875 13.7109375 C6 15 6 15 8 17 C8.53343551 21.64850947 8.6130716 23.91009493 6.3125 28 C1.18483246 31.09595021 -4.1551398 30.86804854 -10 30 C-12.90625 28.46875 -12.90625 28.46875 -15 27 C-13.54728878 23.24716267 -13.54728878 23.24716267 -11.0625 22.125 C-9 22 -9 22 -6 24 C-2.87478167 24.16699232 -2.87478167 24.16699232 0 24 C0.33 22.68 0.66 21.36 1 20 C0.41992188 19.91363281 -0.16015625 19.82726562 -0.7578125 19.73828125 C-6.5266061 18.70065996 -10.15119774 17.53961292 -14 13 C-14.85511898 9.88315327 -14.58259339 8.33667125 -14 5 C-9.5835408 0.46731819 -6.24821459 -0.50388827 0 0 Z " fill="#F9F4F8" transform="translate(180,52)"/>
<path d="M0 0 C12 0 12 0 15.1875 1.875 C18.71866655 6.01498837 18.38475023 9.77957606 18.359375 15.0703125 C18 18 18 18 15.625 21.1875 C9.55559475 25.37827982 9.97165405 24 0 24 C0 16.08 0 8.16 0 0 Z " fill="#8A0B59" transform="translate(104,51)"/>
<path d="M0 0 C2.31 0 4.62 0 7 0 C7 2.31 7 4.62 7 7 C8.98 7 10.96 7 13 7 C13 9.31 13 11.62 13 14 C11.02 14 9.04 14 7 14 C7 21.26 7 28.52 7 36 C4.69 36 2.38 36 0 36 C0 28.74 0 21.48 0 14 C-1.98 14 -3.96 14 -6 14 C-6 11.69 -6 9.38 -6 7 C-4.02 7 -2.04 7 0 7 C0 4.69 0 2.38 0 0 Z " fill="#FDFBFC" transform="translate(196,46)"/>
<path d="M0 0 C2.64 0 5.28 0 8 0 C8 9.57 8 19.14 8 29 C5.36 29 2.72 29 0 29 C0 19.43 0 9.86 0 0 Z " fill="#F9F5F8" transform="translate(214,53)"/>
<path d="M0 0 C2.375 1.4375 2.375 1.4375 4 4 C4.7842297 8.3612774 4.77513557 11.77767083 2.375 15.5625 C-0.72548536 17.43910956 -2.43283597 17.59452734 -6 17 C-8.375 15.5625 -8.375 15.5625 -10 13 C-10.7842297 8.6387226 -10.77513557 5.22232917 -8.375 1.4375 C-5.27451464 -0.43910956 -3.56716403 -0.59452734 0 0 Z " fill="#8A0252" transform="translate(309,59)"/>
<path d="M0 0 C3.625 0.25 3.625 0.25 5.5625 1.625 C6.625 3.25 6.625 3.25 6.625 5.25 C2.335 5.25 -1.955 5.25 -6.375 5.25 C-3.89423077 0.28846154 -3.89423077 0.28846154 0 0 Z " fill="#820A5A" transform="translate(274.375,58.75)"/>
<path d="M0 0 C3.625 0.25 3.625 0.25 5.5625 1.625 C6.625 3.25 6.625 3.25 6.625 5.25 C2.335 5.25 -1.955 5.25 -6.375 5.25 C-3.89423077 0.28846154 -3.89423077 0.28846154 0 0 Z " fill="#820A5B" transform="translate(148.375,58.75)"/>
<path d="M0 0 C-1.2065625 0.9590625 -1.2065625 0.9590625 -2.4375 1.9375 C-5.34538782 3.92816362 -5.34538782 3.92816362 -6.20532227 6.85766602 C-6.26030884 8.04380493 -6.26030884 8.04380493 -6.31640625 9.25390625 C-6.35830078 10.10791016 -6.40019531 10.96191406 -6.44335938 11.84179688 C-6.50233398 13.18854492 -6.50233398 13.18854492 -6.5625 14.5625 C-6.60568359 15.46419922 -6.64886719 16.36589844 -6.69335938 17.29492188 C-6.79978142 19.52978485 -6.90179988 21.76476308 -7 24 C-9.64 24 -12.28 24 -15 24 C-15 23.67 -15 23.34 -15 23 C-12.69 23 -10.38 23 -8 23 C-8.01571045 22.37432129 -8.0314209 21.74864258 -8.04760742 21.10400391 C-8.10984675 18.27776069 -8.14895462 15.45166139 -8.1875 12.625 C-8.21263672 11.64015625 -8.23777344 10.6553125 -8.26367188 9.640625 C-8.27333984 8.69960937 -8.28300781 7.75859375 -8.29296875 6.7890625 C-8.31653442 5.48509521 -8.31653442 5.48509521 -8.34057617 4.15478516 C-8.22818604 3.44370605 -8.1157959 2.73262695 -8 2 C-4.77208445 -0.1519437 -3.71599191 -0.20086443 0 0 Z " fill="#710A5F" transform="translate(245,59)"/>
<path d="M0 0 C0.66 0.33 1.32 0.66 2 1 C1.34 4.3 0.68 7.6 0 11 C-1.32 11.33 -2.64 11.66 -4 12 C-3.67 11.01 -3.34 10.02 -3 9 C-2.29102682 6.47920648 -2 4.65901975 -2 2 C-1.34 1.34 -0.68 0.68 0 0 Z " fill="#940956" transform="translate(5,33)"/>
<path d="M0 0 C2.475 0.495 2.475 0.495 5 1 C3.125 6.75 3.125 6.75 2 9 C2 9.99 2 10.98 2 12 C1.34 12 0.68 12 0 12 C0 8.04 0 4.08 0 0 Z " fill="#900E47" transform="translate(0,36)"/>
<path d="M0 0 C0.66 0 1.32 0 2 0 C2 0.99 2 1.98 2 3 C3.32 2.34 4.64 1.68 6 1 C5.34 2.98 4.68 4.96 4 7 C3.34 7 2.68 7 2 7 C2 6.34 2 5.68 2 5 C0.68 4.67 -0.64 4.34 -2 4 C-1.34 2.68 -0.68 1.36 0 0 Z " fill="#950751" transform="translate(407,16)"/>
<path d="M0 0 C0 0.33 0 0.66 0 1 C-0.94875 1.28875 -1.8975 1.5775 -2.875 1.875 C-6.05211578 2.76825109 -6.05211578 2.76825109 -8 5 C-8.45811675 6.97235333 -8.45811675 6.97235333 -8.625 9.125 C-8.74875 10.40375 -8.8725 11.6825 -9 13 C-9.33 13 -9.66 13 -10 13 C-10.61741425 4.97361478 -10.61741425 4.97361478 -8.375 1.4375 C-5.40106977 -0.3625104 -3.41756151 -0.31068741 0 0 Z " fill="#6D2574" transform="translate(309,59)"/>
<path d="M0 0 C2 2 2 2 2.125 5.125 C2.08375 6.07375 2.0425 7.0225 2 8 C1.01 8 0.02 8 -1 8 C-1.625 5.6875 -1.625 5.6875 -2 3 C-1.34 2.01 -0.68 1.02 0 0 Z " fill="#7D1041" transform="translate(412,4)"/>
<path d="M0 0 C2.0625 1.75 2.0625 1.75 4 4 C3.75 6.25 3.75 6.25 3 8 C2.01 8 1.02 8 0 8 C0 5.36 0 2.72 0 0 Z " fill="#860444" transform="translate(402,0)"/>
<path d="M0 0 C-0.33 0.99 -0.66 1.98 -1 3 C-1.66 3 -2.32 3 -3 3 C-3.33 3.99 -3.66 4.98 -4 6 C-4.99 5.67 -5.98 5.34 -7 5 C-6.625 3.0625 -6.625 3.0625 -6 1 C-4 0 -4 0 0 0 Z " fill="#840543" transform="translate(413,26)"/>
<path d="M0 0 C-2.61514317 2.12038635 -5.19637616 4.13091744 -8 6 C-7.625 3.5625 -7.625 3.5625 -7 1 C-4.53721199 -0.231394 -2.7204945 -0.07159196 0 0 Z " fill="#781666" transform="translate(245,59)"/>
<path d="M0 0 C0.33 0.99 0.66 1.98 1 3 C1.66 3.33 2.32 3.66 3 4 C2.34 4.66 1.68 5.32 1 6 C-1.475 5.01 -1.475 5.01 -4 4 C-3.67 3.34 -3.34 2.68 -3 2 C-2.34 2 -1.68 2 -1 2 C-0.67 1.34 -0.34 0.68 0 0 Z " fill="#830448" transform="translate(16,2)"/>
<path d="M0 0 C1.32 0.33 2.64 0.66 4 1 C4 2.65 4 4.3 4 6 C2.68 6 1.36 6 0 6 C0 4.02 0 2.04 0 0 Z " fill="#8B0157" transform="translate(0,72)"/>
<path d="M0 0 C0.33 0.66 0.66 1.32 1 2 C1.66 2.33 2.32 2.66 3 3 C3 4.65 3 6.3 3 8 C2.01 7.67 1.02 7.34 0 7 C-1.125 2.25 -1.125 2.25 0 0 Z " fill="#95045A" transform="translate(395,21)"/>
<path d="M0 0 C0 0.66 0 1.32 0 2 C-1.32 2.33 -2.64 2.66 -4 3 C-4.33 2.01 -4.66 1.02 -5 0 C-5.66 -0.33 -6.32 -0.66 -7 -1 C-3.51418144 -2.2020064 -3.32007656 -2.21338437 0 0 Z " fill="#970756" transform="translate(12,11)"/>
</svg>
